<svg width="20" height="20" viewBox="0 0 20 20" fill="none" xmlns="http://www.w3.org/2000/svg">
<path d="M7 5L1 5L1 8C1 9.65685 2.34315 11 4 11C5.65685 11 7 9.65685 7 8M7 5V8M7 5L13 5M7 8C7 9.65685 8.34315 11 10 11C11.6569 11 13 9.65685 13 8M13 5V8M13 5H19V8C19 9.65685 17.6569 11 16 11C14.3431 11 13 9.65685 13 8M19 4V16C19 17.6569 17.6569 19 16 19H4C2.34315 19 1 17.6569 1 16L1 4C1 2.34315 2.34315 1 4 1L16 1C17.6569 1 19 2.34315 19 4Z" stroke="#404040" stroke-width="1.5" stroke-linecap="round" stroke-linejoin="round"/>
</svg>
