<svg width="20" height="20" viewBox="0 0 20 20" fill="none" xmlns="http://www.w3.org/2000/svg">
<path d="M19 16V7.55885C19 6.44624 18.3842 5.42501 17.4003 4.9057L11.4003 1.73903C10.524 1.27657 9.47597 1.27657 8.59973 1.73903L2.59972 4.90569C1.61575 5.42501 1 6.44624 1 7.55885L1 16C1 17.6568 2.34315 19 4 19H7L7 15.5C7 14.3954 7.89543 13.5 9 13.5H11C12.1046 13.5 13 14.3954 13 15.5V19L16 19C17.6569 19 19 17.6568 19 16Z" stroke="#404040" stroke-width="1.5" stroke-linecap="round" stroke-linejoin="round"/>
</svg>
